<svg preserveAspectRatio="none" width="100%" height="100%" overflow="visible" style="display: block;" viewBox="0 0 409 564.672" fill="none" xmlns="http://www.w3.org/2000/svg">
<path id="Rectangle 5830" d="M0 131.042C0 122.709 0 118.543 1.43499 115.048C2.70149 111.964 4.75151 109.264 7.38213 107.215C10.3627 104.894 14.376 103.775 22.4026 101.536L370.138 4.54511C383.341 0.862424 389.943 -0.978918 395.161 0.526372C399.733 1.84511 403.65 4.81898 406.148 8.86831C409 13.4905 409 20.3441 409 34.0513V530.142C409 544.213 409 551.248 406.061 555.921C403.488 560.013 399.463 562.979 394.793 564.226C389.46 565.65 382.74 563.567 369.3 559.402L21.5646 451.634C13.8219 449.235 9.95061 448.035 7.08296 445.708C4.55123 443.654 2.58596 440.988 1.37342 437.962C0 434.534 0 430.481 0 422.375V131.042Z" fill="var(--fill-0, #D9D9D9)" fill-opacity="0.4"/>
</svg>
