<svg preserveAspectRatio="none" width="100%" height="100%" overflow="visible" style="display: block;" viewBox="0 0 33.7037 54.7686" fill="none" xmlns="http://www.w3.org/2000/svg">
<g id="Group 13">
<path id="Ellipse 32" d="M8.00489 0.631836C8.79606 0.631955 9.68373 1.18503 10.6006 2.51172C11.5041 3.81923 12.3437 5.7526 13.0586 8.19824C14.4859 13.0815 15.3769 19.8648 15.377 27.3838C15.377 34.903 14.486 41.687 13.0586 46.5703C12.3437 49.016 11.5041 50.9493 10.6006 52.2568C9.68373 53.5835 8.79606 54.1366 8.00489 54.1367C7.21365 54.1367 6.32615 53.5837 5.40918 52.2568C4.50558 50.9493 3.66611 49.0161 2.95118 46.5703C1.52376 41.687 0.63184 34.9031 0.63184 27.3838C0.631876 19.8647 1.5238 13.0815 2.95118 8.19824C3.6661 5.75245 4.50559 3.81924 5.40918 2.51172C6.32615 1.18489 7.21365 0.631836 8.00489 0.631836Z" stroke="url(#paint0_linear_0_22)" stroke-width="1.26389"/>
<path id="Ellipse 33" d="M13.9033 0.631976C14.6945 0.632096 15.5822 1.18517 16.499 2.51186C17.4026 3.81938 18.2422 5.75274 18.957 8.19838C20.3844 13.0816 21.2754 19.8649 21.2754 27.3839C21.2754 34.9031 20.3844 41.6871 18.957 46.5705C18.2421 49.0161 17.4026 50.9495 16.499 52.257C15.5822 53.5837 14.6945 54.1367 13.9033 54.1369C13.1121 54.1369 12.2246 53.5838 11.3076 52.257C10.404 50.9495 9.56454 49.0163 8.84961 46.5705C7.4222 41.6871 6.53027 34.9032 6.53027 27.3839C6.53031 19.8649 7.42223 13.0816 8.84961 8.19838C9.56453 5.75259 10.404 3.81938 11.3076 2.51186C12.2246 1.18503 13.1121 0.631976 13.9033 0.631976Z" stroke="url(#paint1_linear_0_22)" stroke-width="1.26389"/>
<path id="Ellipse 34" d="M20.2215 0.631836C20.9385 0.631836 21.7716 1.16351 22.6453 2.49805C23.5019 3.80644 24.2976 5.74181 24.9754 8.18945C26.3285 13.0759 27.1736 19.8624 27.1736 27.3838C27.1736 34.9054 26.3285 41.6926 24.9754 46.5791C24.2976 49.0268 23.5019 50.9621 22.6453 52.2705C21.7716 53.605 20.9385 54.1367 20.2215 54.1367C19.5046 54.1366 18.6722 53.6048 17.7986 52.2705C16.942 50.9621 16.1464 49.0268 15.4685 46.5791C14.1154 41.6926 13.2703 34.9055 13.2703 27.3838C13.2703 19.8623 14.1154 13.0759 15.4685 8.18945C16.1464 5.74173 16.942 3.80644 17.7986 2.49805C18.6722 1.16372 19.5046 0.631995 20.2215 0.631836Z" stroke="url(#paint2_linear_0_22)" stroke-width="1.26389"/>
<path id="Ellipse 35" d="M25.6991 0.631836C26.4903 0.631955 27.378 1.18503 28.2948 2.51172C29.1983 3.81923 30.0379 5.7526 30.7528 8.19824C32.1802 13.0815 33.0711 19.8648 33.0712 27.3838C33.0712 34.903 32.1802 41.687 30.7528 46.5703C30.0379 49.016 29.1984 50.9493 28.2948 52.2568C27.378 53.5835 26.4903 54.1366 25.6991 54.1367C24.9079 54.1367 24.0204 53.5837 23.1034 52.2568C22.1998 50.9493 21.3603 49.0161 20.6454 46.5703C19.218 41.687 18.3261 34.9031 18.3261 27.3838C18.3261 19.8647 19.218 13.0815 20.6454 8.19824C21.3603 5.75245 22.1998 3.81924 23.1034 2.51172C24.0204 1.18489 24.9079 0.631836 25.6991 0.631836Z" stroke="url(#paint3_linear_0_22)" stroke-width="1.26389"/>
</g>
<defs>
<linearGradient id="paint0_linear_0_22" x1="8.00463" y1="0" x2="8.00463" y2="54.7685" gradientUnits="userSpaceOnUse">
<stop stop-color="#A8B5C1"/>
<stop offset="1" stop-color="#1B1D1F"/>
</linearGradient>
<linearGradient id="paint1_linear_0_22" x1="13.9031" y1="0.000140538" x2="13.9031" y2="54.7686" gradientUnits="userSpaceOnUse">
<stop stop-color="#A8B5C1"/>
<stop offset="1" stop-color="#1B1D1F"/>
</linearGradient>
<linearGradient id="paint2_linear_0_22" x1="20.2218" y1="0" x2="20.2218" y2="54.7685" gradientUnits="userSpaceOnUse">
<stop stop-color="#A8B5C1"/>
<stop offset="1" stop-color="#1B1D1F"/>
</linearGradient>
<linearGradient id="paint3_linear_0_22" x1="25.6989" y1="0" x2="25.6989" y2="54.7685" gradientUnits="userSpaceOnUse">
<stop stop-color="#A8B5C1"/>
<stop offset="1" stop-color="#1B1D1F"/>
</linearGradient>
</defs>
</svg>
