<svg preserveAspectRatio="none" width="100%" height="100%" overflow="visible" style="display: block;" viewBox="0 0 133.13 54.7687" fill="none" xmlns="http://www.w3.org/2000/svg">
<g id="Group 16">
<path id="Ellipse 32" d="M8.00495 0.631836C8.79613 0.631955 9.68379 1.18503 10.6007 2.51172C11.5042 3.81923 12.3438 5.7526 13.0587 8.19824C14.486 13.0815 15.377 19.8648 15.377 27.3838C15.377 34.903 14.4861 41.687 13.0587 46.5703C12.3438 49.016 11.5042 50.9493 10.6007 52.2568C9.68379 53.5835 8.79613 54.1366 8.00495 54.1367C7.21371 54.1367 6.32621 53.5837 5.40925 52.2568C4.50565 50.9493 3.66617 49.0161 2.95124 46.5703C1.52383 41.687 0.631905 34.9031 0.631905 27.3838C0.631941 19.8647 1.52387 13.0815 2.95124 8.19824C3.66617 5.75245 4.50566 3.81924 5.40925 2.51172C6.32621 1.18489 7.21371 0.631836 8.00495 0.631836Z" stroke="url(#paint0_linear_0_14)" stroke-width="1.26389"/>
<path id="Ellipse 33" d="M45.0791 0.632031C45.8703 0.63215 46.7579 1.18523 47.6748 2.51191C48.5783 3.81943 49.4179 5.75279 50.1328 8.19844C51.5602 13.0817 52.4511 19.865 52.4512 27.384C52.4512 34.9032 51.5602 41.6872 50.1328 46.5705C49.4179 49.0162 48.5783 50.9495 47.6748 52.257C46.7579 53.5837 45.8703 54.1368 45.0791 54.1369C44.2879 54.1369 43.4004 53.5839 42.4834 52.257C41.5798 50.9495 40.7403 49.0163 40.0254 46.5705C38.598 41.6872 37.7061 34.9033 37.7061 27.384C37.7061 19.8649 38.598 13.0817 40.0254 8.19844C40.7403 5.75264 41.5798 3.81943 42.4834 2.51191C43.4004 1.18509 44.2879 0.632031 45.0791 0.632031Z" stroke="url(#paint1_linear_0_14)" stroke-width="1.26389"/>
<path id="Ellipse 34" d="M104.48 0.632031C105.197 0.632031 106.031 1.1637 106.904 2.49824C107.761 3.80663 108.557 5.74201 109.234 8.18965C110.588 13.0761 111.433 19.8625 111.433 27.384C111.433 34.9056 110.588 41.6928 109.234 46.5793C108.557 49.027 107.761 50.9623 106.904 52.2707C106.031 53.6052 105.197 54.1369 104.48 54.1369C103.764 54.1368 102.931 53.605 102.058 52.2707C101.201 50.9623 100.405 49.027 99.7275 46.5793C98.3744 41.6928 97.5293 34.9057 97.5293 27.384C97.5293 19.8625 98.3744 13.0761 99.7275 8.18965C100.405 5.74192 101.201 3.80663 102.058 2.49824C102.931 1.16391 103.764 0.63219 104.48 0.632031Z" stroke="url(#paint2_linear_0_14)" stroke-width="1.26389"/>
<path id="Ellipse 37" d="M125.546 0.632031C126.263 0.632031 127.096 1.1637 127.97 2.49824C128.826 3.80663 129.622 5.74201 130.3 8.18965C131.653 13.0761 132.498 19.8625 132.498 27.384C132.498 34.9056 131.653 41.6928 130.3 46.5793C129.622 49.027 128.826 50.9623 127.97 52.2707C127.096 53.6052 126.263 54.1369 125.546 54.1369C124.829 54.1368 123.997 53.605 123.123 52.2707C122.266 50.9623 121.471 49.027 120.793 46.5793C119.44 41.6928 118.595 34.9057 118.595 27.384C118.595 19.8625 119.44 13.0761 120.793 8.18965C121.471 5.74192 122.266 3.80663 123.123 2.49824C123.997 1.16391 124.829 0.63219 125.546 0.632031Z" stroke="url(#paint3_linear_0_14)" stroke-width="1.26389"/>
<path id="Ellipse 36" d="M96.8982 0.63189C97.6152 0.63189 98.4483 1.16356 99.322 2.4981C100.179 3.80649 100.974 5.74187 101.652 8.18951C103.005 13.0759 103.85 19.8624 103.85 27.3838C103.85 34.9055 103.005 41.6926 101.652 46.5792C100.974 49.0268 100.179 50.9622 99.322 52.2706C98.4483 53.6051 97.6152 54.1368 96.8982 54.1368C96.1813 54.1366 95.349 53.6049 94.4754 52.2706C93.6187 50.9622 92.8231 49.0269 92.1453 46.5792C90.7921 41.6926 89.947 34.9055 89.947 27.3838C89.9471 19.8624 90.7921 13.0759 92.1453 8.18951C92.8231 5.74178 93.6187 3.80649 94.4754 2.4981C95.349 1.16377 96.1813 0.63205 96.8982 0.63189Z" stroke="url(#paint4_linear_0_14)" stroke-width="1.26389"/>
<path id="Ellipse 35" d="M109.959 0.632031C110.75 0.63215 111.638 1.18523 112.555 2.51191C113.458 3.81943 114.298 5.75279 115.013 8.19844C116.44 13.0817 117.331 19.865 117.331 27.384C117.331 34.9032 116.44 41.6872 115.013 46.5705C114.298 49.0162 113.458 50.9495 112.555 52.257C111.638 53.5837 110.75 54.1368 109.959 54.1369C109.168 54.1369 108.28 53.5839 107.363 52.257C106.46 50.9495 105.62 49.0163 104.905 46.5705C103.478 41.6872 102.586 34.9033 102.586 27.384C102.586 19.8649 103.478 13.0817 104.905 8.19844C105.62 5.75264 106.46 3.81943 107.363 2.51191C108.28 1.18509 109.168 0.632031 109.959 0.632031Z" stroke="url(#paint5_linear_0_14)" stroke-width="1.26389"/>
</g>
<defs>
<linearGradient id="paint0_linear_0_14" x1="8.0047" y1="0" x2="8.0047" y2="54.7685" gradientUnits="userSpaceOnUse">
<stop stop-color="#A8B5C1"/>
<stop offset="1" stop-color="#1B1D1F"/>
</linearGradient>
<linearGradient id="paint1_linear_0_14" x1="45.0788" y1="0.00019482" x2="45.0788" y2="54.7687" gradientUnits="userSpaceOnUse">
<stop stop-color="#A8B5C1"/>
<stop offset="1" stop-color="#1B1D1F"/>
</linearGradient>
<linearGradient id="paint2_linear_0_14" x1="104.481" y1="0.00019482" x2="104.481" y2="54.7687" gradientUnits="userSpaceOnUse">
<stop stop-color="#A8B5C1"/>
<stop offset="1" stop-color="#1B1D1F"/>
</linearGradient>
<linearGradient id="paint3_linear_0_14" x1="125.546" y1="0.00019482" x2="125.546" y2="54.7687" gradientUnits="userSpaceOnUse">
<stop stop-color="#A8B5C1"/>
<stop offset="1" stop-color="#1B1D1F"/>
</linearGradient>
<linearGradient id="paint4_linear_0_14" x1="96.8985" y1="5.42822e-05" x2="96.8985" y2="54.7686" gradientUnits="userSpaceOnUse">
<stop stop-color="#A8B5C1"/>
<stop offset="1" stop-color="#1B1D1F"/>
</linearGradient>
<linearGradient id="paint5_linear_0_14" x1="109.959" y1="0.00019482" x2="109.959" y2="54.7687" gradientUnits="userSpaceOnUse">
<stop stop-color="#A8B5C1"/>
<stop offset="1" stop-color="#1B1D1F"/>
</linearGradient>
</defs>
</svg>
