<svg preserveAspectRatio="none" width="100%" height="100%" overflow="visible" style="display: block;" viewBox="0 0 32.862 54.7687" fill="none" xmlns="http://www.w3.org/2000/svg">
<g id="Group 17">
<path id="Ellipse 32" d="M8.00491 0.631836C8.79608 0.631955 9.68375 1.18503 10.6006 2.51172C11.5041 3.81923 12.3437 5.7526 13.0586 8.19824C14.486 13.0815 15.3769 19.8648 15.377 27.3838C15.377 34.903 14.486 41.687 13.0586 46.5703C12.3437 49.016 11.5041 50.9493 10.6006 52.2568C9.68375 53.5835 8.79608 54.1366 8.00491 54.1367C7.21367 54.1367 6.32616 53.5837 5.4092 52.2568C4.5056 50.9493 3.66613 49.0161 2.9512 46.5703C1.52378 41.687 0.63186 34.9031 0.63186 27.3838C0.631896 19.8647 1.52382 13.0815 2.9512 8.19824C3.66612 5.75245 4.50561 3.81924 5.4092 2.51172C6.32616 1.18489 7.21367 0.631836 8.00491 0.631836Z" fill="url(#paint0_linear_0_4)" fill-opacity="0.8" stroke="url(#paint1_linear_0_4)" stroke-width="1.26389"/>
<path id="Ellipse 33" d="M13.9043 0.632031C14.6955 0.63215 15.5831 1.18523 16.5 2.51191C17.4035 3.81943 18.2431 5.75279 18.958 8.19844C20.3854 13.0817 21.2763 19.865 21.2764 27.384C21.2764 34.9032 20.3854 41.6872 18.958 46.5705C18.2431 49.0162 17.4035 50.9495 16.5 52.257C15.5831 53.5837 14.6955 54.1368 13.9043 54.1369C13.1131 54.1369 12.2256 53.5839 11.3086 52.257C10.405 50.9495 9.56552 49.0163 8.85059 46.5705C7.42317 41.6872 6.53125 34.9033 6.53125 27.384C6.53129 19.8649 7.42321 13.0817 8.85059 8.19844C9.56551 5.75264 10.405 3.81943 11.3086 2.51191C12.2256 1.18509 13.1131 0.632031 13.9043 0.632031Z" fill="url(#paint2_linear_0_4)" fill-opacity="0.8" stroke="url(#paint3_linear_0_4)" stroke-width="1.26389"/>
<path id="Ellipse 34" d="M25.2783 0.63189C25.9953 0.63189 26.8284 1.16356 27.7021 2.4981C28.5587 3.80649 29.3544 5.74187 30.0322 8.18951C31.3854 13.0759 32.2304 19.8624 32.2305 27.3838C32.2305 34.9055 31.3854 41.6926 30.0322 46.5792C29.3544 49.0268 28.5588 50.9622 27.7021 52.2706C26.8284 53.6051 25.9953 54.1368 25.2783 54.1368C24.5614 54.1366 23.7291 53.6049 22.8555 52.2706C21.9988 50.9622 21.2032 49.0269 20.5254 46.5792C19.1722 41.6926 18.3271 34.9055 18.3271 27.3838C18.3272 19.8624 19.1722 13.0759 20.5254 8.18951C21.2032 5.74178 21.9988 3.80649 22.8555 2.4981C23.7291 1.16377 24.5614 0.63205 25.2783 0.63189Z" fill="url(#paint4_linear_0_4)" fill-opacity="0.8" stroke="url(#paint5_linear_0_4)" stroke-width="1.26389"/>
<path id="Ellipse 35" d="M19.8018 0.632031C20.5929 0.63215 21.4806 1.18523 22.3975 2.51191C23.301 3.81943 24.1406 5.75279 24.8555 8.19844C26.2828 13.0817 27.1738 19.865 27.1738 27.384C27.1738 34.9032 26.2829 41.6872 24.8555 46.5705C24.1406 49.0162 23.301 50.9495 22.3975 52.257C21.4806 53.5837 20.5929 54.1368 19.8018 54.1369C19.0105 54.1369 18.123 53.5839 17.2061 52.257C16.3025 50.9495 15.463 49.0163 14.748 46.5705C13.3206 41.6872 12.4287 34.9033 12.4287 27.384C12.4287 19.8649 13.3207 13.0817 14.748 8.19844C15.463 5.75264 16.3025 3.81943 17.2061 2.51191C18.123 1.18509 19.0105 0.632031 19.8018 0.632031Z" fill="url(#paint6_linear_0_4)" fill-opacity="0.8" stroke="url(#paint7_linear_0_4)" stroke-width="1.26389"/>
</g>
<defs>
<linearGradient id="paint0_linear_0_4" x1="8.00465" y1="0" x2="8.00465" y2="54.7685" gradientUnits="userSpaceOnUse">
<stop stop-color="#616870" stop-opacity="0.8"/>
<stop offset="1" stop-color="#1B1D1F" stop-opacity="0.8"/>
</linearGradient>
<linearGradient id="paint1_linear_0_4" x1="8.00465" y1="0" x2="8.00465" y2="54.7685" gradientUnits="userSpaceOnUse">
<stop stop-color="#A8B5C1"/>
<stop offset="1" stop-color="#1B1D1F"/>
</linearGradient>
<linearGradient id="paint2_linear_0_4" x1="13.904" y1="0.00019482" x2="13.904" y2="54.7687" gradientUnits="userSpaceOnUse">
<stop stop-color="#616870" stop-opacity="0.8"/>
<stop offset="1" stop-color="#1B1D1F" stop-opacity="0.8"/>
</linearGradient>
<linearGradient id="paint3_linear_0_4" x1="13.904" y1="0.00019482" x2="13.904" y2="54.7687" gradientUnits="userSpaceOnUse">
<stop stop-color="#A8B5C1"/>
<stop offset="1" stop-color="#1B1D1F"/>
</linearGradient>
<linearGradient id="paint4_linear_0_4" x1="25.2786" y1="5.42822e-05" x2="25.2786" y2="54.7686" gradientUnits="userSpaceOnUse">
<stop stop-color="#616870" stop-opacity="0.8"/>
<stop offset="1" stop-color="#1B1D1F" stop-opacity="0.8"/>
</linearGradient>
<linearGradient id="paint5_linear_0_4" x1="25.2786" y1="5.42822e-05" x2="25.2786" y2="54.7686" gradientUnits="userSpaceOnUse">
<stop stop-color="#A8B5C1"/>
<stop offset="1" stop-color="#1B1D1F"/>
</linearGradient>
<linearGradient id="paint6_linear_0_4" x1="19.8015" y1="0.00019482" x2="19.8015" y2="54.7687" gradientUnits="userSpaceOnUse">
<stop stop-color="#616870" stop-opacity="0.8"/>
<stop offset="1" stop-color="#1B1D1F" stop-opacity="0.8"/>
</linearGradient>
<linearGradient id="paint7_linear_0_4" x1="19.8015" y1="0.00019482" x2="19.8015" y2="54.7687" gradientUnits="userSpaceOnUse">
<stop stop-color="#A8B5C1"/>
<stop offset="1" stop-color="#1B1D1F"/>
</linearGradient>
</defs>
</svg>
