<svg preserveAspectRatio="none" width="100%" height="100%" overflow="visible" style="display: block;" viewBox="0 0 33.7038 54.7687" fill="none" xmlns="http://www.w3.org/2000/svg">
<g id="Group 12">
<path id="Ellipse 32" d="M8.00488 0.631836C8.79606 0.631955 9.68372 1.18503 10.6006 2.51172C11.5041 3.81923 12.3437 5.7526 13.0586 8.19824C14.4859 13.0815 15.3769 19.8648 15.377 27.3838C15.377 34.903 14.486 41.687 13.0586 46.5703C12.3437 49.016 11.5041 50.9493 10.6006 52.2568C9.68372 53.5835 8.79606 54.1366 8.00488 54.1367C7.21364 54.1367 6.32614 53.5837 5.40918 52.2568C4.50558 50.9493 3.6661 49.0161 2.95117 46.5703C1.52376 41.687 0.631836 34.9031 0.631836 27.3838C0.631872 19.8647 1.5238 13.0815 2.95117 8.19824C3.6661 5.75245 4.50559 3.81924 5.40918 2.51172C6.32614 1.18489 7.21364 0.631836 8.00488 0.631836Z" stroke="url(#paint0_linear_0_27)" stroke-width="1.26389"/>
<path id="Ellipse 33" d="M13.9034 0.632031C14.6946 0.63215 15.5822 1.18523 16.4991 2.51191C17.4026 3.81943 18.2422 5.75279 18.9571 8.19844C20.3845 13.0817 21.2754 19.865 21.2755 27.384C21.2755 34.9032 20.3845 41.6872 18.9571 46.5705C18.2422 49.0162 17.4026 50.9495 16.4991 52.257C15.5822 53.5837 14.6946 54.1368 13.9034 54.1369C13.1122 54.1369 12.2246 53.5839 11.3077 52.257C10.4041 50.9495 9.56461 49.0163 8.84968 46.5705C7.42227 41.6872 6.53034 34.9033 6.53034 27.384C6.53038 19.8649 7.42231 13.0817 8.84968 8.19844C9.5646 5.75264 10.4041 3.81943 11.3077 2.51191C12.2246 1.18509 13.1122 0.632031 13.9034 0.632031Z" stroke="url(#paint1_linear_0_27)" stroke-width="1.26389"/>
<path id="Ellipse 34" d="M20.2218 0.632031C20.9387 0.632031 21.7718 1.1637 22.6456 2.49824C23.5022 3.80663 24.2978 5.74201 24.9757 8.18965C26.3288 13.0761 27.1739 19.8625 27.1739 27.384C27.1739 34.9056 26.3288 41.6928 24.9757 46.5793C24.2978 49.027 23.5022 50.9623 22.6456 52.2707C21.7718 53.6052 20.9387 54.1369 20.2218 54.1369C19.5049 54.1368 18.6725 53.605 17.7989 52.2707C16.9423 50.9623 16.1467 49.027 15.4688 46.5793C14.1156 41.6928 13.2706 34.9057 13.2706 27.384C13.2706 19.8625 14.1157 13.0761 15.4688 8.18965C16.1467 5.74192 16.9423 3.80663 17.7989 2.49824C18.6725 1.16391 19.5048 0.63219 20.2218 0.632031Z" stroke="url(#paint2_linear_0_27)" stroke-width="1.26389"/>
<path id="Ellipse 35" d="M25.6991 0.63189C26.4903 0.63201 27.378 1.18509 28.2948 2.51177C29.1983 3.81929 30.0379 5.75265 30.7528 8.1983C32.1802 13.0815 33.0711 19.8648 33.0712 27.3838C33.0712 34.903 32.1802 41.687 30.7528 46.5704C30.0379 49.016 29.1984 50.9494 28.2948 52.2569C27.378 53.5836 26.4903 54.1367 25.6991 54.1368C24.9079 54.1368 24.0204 53.5837 23.1034 52.2569C22.1998 50.9494 21.3603 49.0162 20.6454 46.5704C19.218 41.687 18.3261 34.9031 18.3261 27.3838C18.3261 19.8648 19.218 13.0815 20.6454 8.1983C21.3603 5.7525 22.1998 3.81929 23.1034 2.51177C24.0204 1.18495 24.9079 0.63189 25.6991 0.63189Z" stroke="url(#paint3_linear_0_27)" stroke-width="1.26389"/>
</g>
<defs>
<linearGradient id="paint0_linear_0_27" x1="8.00463" y1="0" x2="8.00463" y2="54.7685" gradientUnits="userSpaceOnUse">
<stop stop-color="#A8B5C1"/>
<stop offset="1" stop-color="#1B1D1F"/>
</linearGradient>
<linearGradient id="paint1_linear_0_27" x1="13.9031" y1="0.00019482" x2="13.9031" y2="54.7687" gradientUnits="userSpaceOnUse">
<stop stop-color="#A8B5C1"/>
<stop offset="1" stop-color="#1B1D1F"/>
</linearGradient>
<linearGradient id="paint2_linear_0_27" x1="20.2221" y1="0.00019482" x2="20.2221" y2="54.7687" gradientUnits="userSpaceOnUse">
<stop stop-color="#A8B5C1"/>
<stop offset="1" stop-color="#1B1D1F"/>
</linearGradient>
<linearGradient id="paint3_linear_0_27" x1="25.6989" y1="5.42822e-05" x2="25.6989" y2="54.7686" gradientUnits="userSpaceOnUse">
<stop stop-color="#A8B5C1"/>
<stop offset="1" stop-color="#1B1D1F"/>
</linearGradient>
</defs>
</svg>
